<svg xmlns="http://www.w3.org/2000/svg" width="375" viewBox="0 0 375 112.5" height="112.5" version="1.0"><g><g><g><path d="M 8.328125 0 L 8.328125 -69.859375 L 61.328125 -69.859375 L 61.328125 -62.125 L 17.796875 -62.125 L 17.796875 -39.71875 L 58.359375 -39.71875 L 58.359375 -32.078125 L 17.796875 -32.078125 L 17.796875 -7.734375 L 63.375 -7.734375 L 63.375 0 Z M 8.328125 0" transform="translate(2.371 81.833)"/></g></g></g><g><g><g><path d="M 39.71875 0 L 25.28125 -22.015625 L 10.765625 0 L 1.140625 0 L 20.234375 -27.5625 L 2.03125 -53.65625 L 11.90625 -53.65625 L 25.28125 -32.78125 L 38.578125 -53.65625 L 48.546875 -53.65625 L 30.34375 -27.671875 L 49.6875 0 Z M 39.71875 0" transform="translate(70.1 81.833)"/></g></g></g><g><g><g><path d="M 52.21875 -27.078125 C 52.21875 -8.367188 45.640625 0.984375 32.484375 0.984375 C 24.210938 0.984375 18.65625 -2.117188 15.8125 -8.328125 L 15.5625 -8.328125 C 15.695312 -8.066406 15.765625 -5.257812 15.765625 0.09375 L 15.765625 21.078125 L 6.84375 21.078125 L 6.84375 -42.6875 C 6.84375 -48.207031 6.742188 -51.863281 6.546875 -53.65625 L 15.171875 -53.65625 C 15.203125 -53.519531 15.25 -53.046875 15.3125 -52.234375 C 15.382812 -51.421875 15.460938 -50.171875 15.546875 -48.484375 C 15.628906 -46.804688 15.671875 -45.648438 15.671875 -45.015625 L 15.859375 -45.015625 C 17.453125 -48.328125 19.550781 -50.75 22.15625 -52.28125 C 24.769531 -53.820312 28.210938 -54.59375 32.484375 -54.59375 C 39.085938 -54.59375 44.023438 -52.375 47.296875 -47.9375 C 50.578125 -43.507812 52.21875 -36.554688 52.21875 -27.078125 Z M 42.84375 -26.875 C 42.84375 -34.34375 41.832031 -39.679688 39.8125 -42.890625 C 37.800781 -46.097656 34.597656 -47.703125 30.203125 -47.703125 C 26.660156 -47.703125 23.890625 -46.957031 21.890625 -45.46875 C 19.890625 -43.976562 18.367188 -41.65625 17.328125 -38.5 C 16.285156 -35.34375 15.765625 -31.238281 15.765625 -26.1875 C 15.765625 -19.144531 16.890625 -13.953125 19.140625 -10.609375 C 21.390625 -7.273438 25.039062 -5.609375 30.09375 -5.609375 C 34.519531 -5.609375 37.75 -7.234375 39.78125 -10.484375 C 41.820312 -13.742188 42.84375 -19.207031 42.84375 -26.875 Z M 42.84375 -26.875" transform="translate(120.87 81.833)"/></g></g></g><g><g><g><path d="M 7.046875 0 L 7.046875 -41.15625 C 7.046875 -44.925781 6.945312 -49.09375 6.75 -53.65625 L 15.171875 -53.65625 C 15.429688 -47.570312 15.5625 -43.914062 15.5625 -42.6875 L 15.765625 -42.6875 C 17.191406 -47.28125 18.828125 -50.421875 20.671875 -52.109375 C 22.523438 -53.796875 25.140625 -54.640625 28.515625 -54.640625 C 29.703125 -54.640625 30.90625 -54.472656 32.125 -54.140625 L 32.125 -45.96875 C 30.9375 -46.289062 29.351562 -46.453125 27.375 -46.453125 C 23.664062 -46.453125 20.835938 -44.859375 18.890625 -41.671875 C 16.941406 -38.484375 15.96875 -33.914062 15.96875 -27.96875 L 15.96875 0 Z M 7.046875 0" transform="translate(177.343 81.833)"/></g></g></g><g><g><g><path d="M 13.6875 -24.9375 C 13.6875 -18.789062 14.957031 -14.046875 17.5 -10.703125 C 20.050781 -7.367188 23.769531 -5.703125 28.65625 -5.703125 C 32.519531 -5.703125 35.617188 -6.476562 37.953125 -8.03125 C 40.285156 -9.582031 41.863281 -11.550781 42.6875 -13.9375 L 50.53125 -11.703125 C 47.320312 -3.242188 40.03125 0.984375 28.65625 0.984375 C 20.726562 0.984375 14.6875 -1.375 10.53125 -6.09375 C 6.382812 -10.820312 4.3125 -17.847656 4.3125 -27.171875 C 4.3125 -36.023438 6.382812 -42.816406 10.53125 -47.546875 C 14.6875 -52.273438 20.613281 -54.640625 28.3125 -54.640625 C 44.082031 -54.640625 51.96875 -45.132812 51.96875 -26.125 L 51.96875 -24.9375 Z M 42.734375 -31.78125 C 42.242188 -37.4375 40.804688 -41.5625 38.421875 -44.15625 C 36.046875 -46.75 32.625 -48.046875 28.15625 -48.046875 C 23.832031 -48.046875 20.40625 -46.597656 17.875 -43.703125 C 15.34375 -40.816406 13.976562 -36.84375 13.78125 -31.78125 Z M 42.734375 -31.78125" transform="translate(211.157 81.833)"/></g></g></g><g><g><g><path d="M 47.109375 -14.828125 C 47.109375 -9.765625 45.195312 -5.863281 41.375 -3.125 C 37.5625 -0.382812 32.21875 0.984375 25.34375 0.984375 C 18.664062 0.984375 13.515625 -0.113281 9.890625 -2.3125 C 6.273438 -4.507812 3.921875 -7.9375 2.828125 -12.59375 L 10.703125 -14.125 C 11.460938 -11.25 13.03125 -9.140625 15.40625 -7.796875 C 17.789062 -6.460938 21.101562 -5.796875 25.34375 -5.796875 C 29.863281 -5.796875 33.171875 -6.488281 35.265625 -7.875 C 37.367188 -9.269531 38.421875 -11.351562 38.421875 -14.125 C 38.421875 -16.238281 37.691406 -17.957031 36.234375 -19.28125 C 34.785156 -20.601562 32.441406 -21.695312 29.203125 -22.5625 L 22.8125 -24.25 C 17.6875 -25.570312 14.039062 -26.867188 11.875 -28.140625 C 9.707031 -29.410156 8.007812 -30.953125 6.78125 -32.765625 C 5.5625 -34.585938 4.953125 -36.820312 4.953125 -39.46875 C 4.953125 -44.363281 6.695312 -48.09375 10.1875 -50.65625 C 13.675781 -53.21875 18.757812 -54.5 25.4375 -54.5 C 31.351562 -54.5 36.054688 -53.457031 39.546875 -51.375 C 43.035156 -49.289062 45.238281 -45.953125 46.15625 -41.359375 L 38.125 -40.359375 C 37.632812 -42.742188 36.304688 -44.570312 34.140625 -45.84375 C 31.972656 -47.113281 29.070312 -47.75 25.4375 -47.75 C 21.40625 -47.75 18.429688 -47.132812 16.515625 -45.90625 C 14.597656 -44.6875 13.640625 -42.835938 13.640625 -40.359375 C 13.640625 -38.835938 14.035156 -37.582031 14.828125 -36.59375 C 15.617188 -35.601562 16.789062 -34.757812 18.34375 -34.0625 C 19.894531 -33.363281 23.164062 -32.40625 28.15625 -31.1875 C 32.882812 -30 36.289062 -28.898438 38.375 -27.890625 C 40.457031 -26.878906 42.101562 -25.757812 43.3125 -24.53125 C 44.519531 -23.3125 45.453125 -21.898438 46.109375 -20.296875 C 46.773438 -18.703125 47.109375 -16.878906 47.109375 -14.828125 Z M 47.109375 -14.828125" transform="translate(267.63 81.833)"/></g></g></g><g><g><g><path d="M 47.109375 -14.828125 C 47.109375 -9.765625 45.195312 -5.863281 41.375 -3.125 C 37.5625 -0.382812 32.21875 0.984375 25.34375 0.984375 C 18.664062 0.984375 13.515625 -0.113281 9.890625 -2.3125 C 6.273438 -4.507812 3.921875 -7.9375 2.828125 -12.59375 L 10.703125 -14.125 C 11.460938 -11.25 13.03125 -9.140625 15.40625 -7.796875 C 17.789062 -6.460938 21.101562 -5.796875 25.34375 -5.796875 C 29.863281 -5.796875 33.171875 -6.488281 35.265625 -7.875 C 37.367188 -9.269531 38.421875 -11.351562 38.421875 -14.125 C 38.421875 -16.238281 37.691406 -17.957031 36.234375 -19.28125 C 34.785156 -20.601562 32.441406 -21.695312 29.203125 -22.5625 L 22.8125 -24.25 C 17.6875 -25.570312 14.039062 -26.867188 11.875 -28.140625 C 9.707031 -29.410156 8.007812 -30.953125 6.78125 -32.765625 C 5.5625 -34.585938 4.953125 -36.820312 4.953125 -39.46875 C 4.953125 -44.363281 6.695312 -48.09375 10.1875 -50.65625 C 13.675781 -53.21875 18.757812 -54.5 25.4375 -54.5 C 31.351562 -54.5 36.054688 -53.457031 39.546875 -51.375 C 43.035156 -49.289062 45.238281 -45.953125 46.15625 -41.359375 L 38.125 -40.359375 C 37.632812 -42.742188 36.304688 -44.570312 34.140625 -45.84375 C 31.972656 -47.113281 29.070312 -47.75 25.4375 -47.75 C 21.40625 -47.75 18.429688 -47.132812 16.515625 -45.90625 C 14.597656 -44.6875 13.640625 -42.835938 13.640625 -40.359375 C 13.640625 -38.835938 14.035156 -37.582031 14.828125 -36.59375 C 15.617188 -35.601562 16.789062 -34.757812 18.34375 -34.0625 C 19.894531 -33.363281 23.164062 -32.40625 28.15625 -31.1875 C 32.882812 -30 36.289062 -28.898438 38.375 -27.890625 C 40.457031 -26.878906 42.101562 -25.757812 43.3125 -24.53125 C 44.519531 -23.3125 45.453125 -21.898438 46.109375 -20.296875 C 46.773438 -18.703125 47.109375 -16.878906 47.109375 -14.828125 Z M 47.109375 -14.828125" transform="translate(318.401 81.833)"/></g></g></g></svg>