<svg xmlns="http://www.w3.org/2000/svg" version="1.1" xmlns:xlink="http://www.w3.org/1999/xlink" xmlns:svgjs="http://svgjs.com/svgjs" width="1440" height="560" preserveAspectRatio="none" viewBox="0 0 1440 560"><g mask="url(&quot;#SvgjsMask1040&quot;)" fill="none"><rect width="1440" height="560" x="0" y="0" fill="rgba(75, 75, 85, 1)"></rect><path d="M-86.5 395.31L-86.5 395.31" stroke="rgba(0, 141, 150, 0.23)" stroke-width="1.5"></path><path d="M-86.5 395.31L-42.84 515.69" stroke="rgba(0, 141, 150, 0.23)" stroke-width="1.5"></path><path d="M-86.5 395.31L83.83 383.24" stroke="rgba(0, 141, 150, 0.23)" stroke-width="1.5"></path><path d="M-86.5 395.31L58.09 551.51" stroke="rgba(0, 141, 150, 0.23)" stroke-width="1.5"></path><path d="M-86.5 395.31L-77.38 706.61" stroke="rgba(0, 141, 150, 0.23)" stroke-width="1.5"></path><path d="M-86.5 395.31L234.57 351.52" stroke="rgba(0, 141, 150, 0.23)" stroke-width="1.5"></path><path d="M-42.84 515.69L-42.84 515.69" stroke="rgba(0, 141, 150, 0.23)" stroke-width="1.5"></path><path d="M-42.84 515.69L58.09 551.51" stroke="rgba(0, 141, 150, 0.23)" stroke-width="1.5"></path><path d="M-42.84 515.69L83.83 383.24" stroke="rgba(0, 141, 150, 0.23)" stroke-width="1.5"></path><path d="M-42.84 515.69L-77.38 706.61" stroke="rgba(0, 141, 150, 0.23)" stroke-width="1.5"></path><path d="M-77.38 706.61L-77.38 706.61" stroke="rgba(0, 141, 150, 0.23)" stroke-width="1.5"></path><path d="M-77.38 706.61L58.09 551.51" stroke="rgba(0, 141, 150, 0.23)" stroke-width="1.5"></path><path d="M-77.38 706.61L228.46 670.77" stroke="rgba(0, 141, 150, 0.23)" stroke-width="1.5"></path><path d="M83.83 383.24L83.83 383.24" stroke="rgba(0, 141, 150, 0.23)" stroke-width="1.5"></path><path d="M83.83 383.24L234.57 351.52" stroke="rgba(0, 141, 150, 0.23)" stroke-width="1.5"></path><path d="M83.83 383.24L58.09 551.51" stroke="rgba(0, 141, 150, 0.23)" stroke-width="1.5"></path><path d="M58.09 551.51L58.09 551.51" stroke="rgba(0, 141, 150, 0.23)" stroke-width="1.5"></path><path d="M58.09 551.51L200.03 549.25" stroke="rgba(0, 141, 150, 0.23)" stroke-width="1.5"></path><path d="M234.57 351.52L234.57 351.52" stroke="rgba(0, 141, 150, 0.23)" stroke-width="1.5"></path><path d="M234.57 351.52L370.27 366.32" stroke="rgba(0, 141, 150, 0.23)" stroke-width="1.5"></path><path d="M234.57 351.52L359.19 489.78" stroke="rgba(0, 141, 150, 0.23)" stroke-width="1.5"></path><path d="M200.03 549.25L200.03 549.25" stroke="rgba(0, 141, 150, 0.23)" stroke-width="1.5"></path><path d="M200.03 549.25L228.46 670.77" stroke="rgba(0, 141, 150, 0.23)" stroke-width="1.5"></path><path d="M200.03 549.25L359.19 489.78" stroke="rgba(0, 141, 150, 0.23)" stroke-width="1.5"></path><path d="M200.03 549.25L347.27 645.76" stroke="rgba(0, 141, 150, 0.23)" stroke-width="1.5"></path><path d="M200.03 549.25L234.57 351.52" stroke="rgba(0, 141, 150, 0.23)" stroke-width="1.5"></path><path d="M228.46 670.77L228.46 670.77" stroke="rgba(0, 141, 150, 0.23)" stroke-width="1.5"></path><path d="M228.46 670.77L347.27 645.76" stroke="rgba(0, 141, 150, 0.23)" stroke-width="1.5"></path><path d="M228.46 670.77L58.09 551.51" stroke="rgba(0, 141, 150, 0.23)" stroke-width="1.5"></path><path d="M228.46 670.77L359.19 489.78" stroke="rgba(0, 141, 150, 0.23)" stroke-width="1.5"></path><path d="M228.46 670.77L527.74 640.66" stroke="rgba(0, 141, 150, 0.23)" stroke-width="1.5"></path><path d="M370.27 366.32L370.27 366.32" stroke="rgba(0, 141, 150, 0.23)" stroke-width="1.5"></path><path d="M370.27 366.32L359.19 489.78" stroke="rgba(0, 141, 150, 0.23)" stroke-width="1.5"></path><path d="M370.27 366.32L497.85 357.92" stroke="rgba(0, 141, 150, 0.23)" stroke-width="1.5"></path><path d="M359.19 489.78L359.19 489.78" stroke="rgba(0, 141, 150, 0.23)" stroke-width="1.5"></path><path d="M359.19 489.78L347.27 645.76" stroke="rgba(0, 141, 150, 0.23)" stroke-width="1.5"></path><path d="M347.27 645.76L347.27 645.76" stroke="rgba(0, 141, 150, 0.23)" stroke-width="1.5"></path><path d="M497.85 357.92L497.85 357.92" stroke="rgba(0, 141, 150, 0.23)" stroke-width="1.5"></path><path d="M497.85 357.92L673.71 382.79" stroke="rgba(0, 141, 150, 0.23)" stroke-width="1.5"></path><path d="M542.05 534.66L542.05 534.66" stroke="rgba(0, 141, 150, 0.23)" stroke-width="1.5"></path><path d="M542.05 534.66L527.74 640.66" stroke="rgba(0, 141, 150, 0.23)" stroke-width="1.5"></path><path d="M542.05 534.66L663.28 536.33" stroke="rgba(0, 141, 150, 0.23)" stroke-width="1.5"></path><path d="M527.74 640.66L527.74 640.66" stroke="rgba(0, 141, 150, 0.23)" stroke-width="1.5"></path><path d="M527.74 640.66L662.39 702.57" stroke="rgba(0, 141, 150, 0.23)" stroke-width="1.5"></path><path d="M527.74 640.66L663.28 536.33" stroke="rgba(0, 141, 150, 0.23)" stroke-width="1.5"></path><path d="M673.71 382.79L673.71 382.79" stroke="rgba(0, 141, 150, 0.23)" stroke-width="1.5"></path><path d="M673.71 382.79L663.28 536.33" stroke="rgba(0, 141, 150, 0.23)" stroke-width="1.5"></path><path d="M673.71 382.79L835.62 401.5" stroke="rgba(0, 141, 150, 0.23)" stroke-width="1.5"></path><path d="M673.71 382.79L791.96 251.55" stroke="rgba(0, 141, 150, 0.23)" stroke-width="1.5"></path><path d="M663.28 536.33L663.28 536.33" stroke="rgba(0, 141, 150, 0.23)" stroke-width="1.5"></path><path d="M662.39 702.57L662.39 702.57" stroke="rgba(0, 141, 150, 0.23)" stroke-width="1.5"></path><path d="M662.39 702.57L805.13 684.56" stroke="rgba(0, 141, 150, 0.23)" stroke-width="1.5"></path><path d="M662.39 702.57L663.28 536.33" stroke="rgba(0, 141, 150, 0.23)" stroke-width="1.5"></path><path d="M662.39 702.57L542.05 534.66" stroke="rgba(0, 141, 150, 0.23)" stroke-width="1.5"></path><path d="M791.96 251.55L791.96 251.55" stroke="rgba(0, 141, 150, 0.23)" stroke-width="1.5"></path><path d="M791.96 251.55L835.62 401.5" stroke="rgba(0, 141, 150, 0.23)" stroke-width="1.5"></path><path d="M791.96 251.55L982.85 250.26" stroke="rgba(0, 141, 150, 0.23)" stroke-width="1.5"></path><path d="M835.62 401.5L835.62 401.5" stroke="rgba(0, 141, 150, 0.23)" stroke-width="1.5"></path><path d="M835.62 401.5L859.68 533.31" stroke="rgba(0, 141, 150, 0.23)" stroke-width="1.5"></path><path d="M835.62 401.5L1006.09 372.8" stroke="rgba(0, 141, 150, 0.23)" stroke-width="1.5"></path><path d="M835.62 401.5L967.38 521.7" stroke="rgba(0, 141, 150, 0.23)" stroke-width="1.5"></path><path d="M859.68 533.31L859.68 533.31" stroke="rgba(0, 141, 150, 0.23)" stroke-width="1.5"></path><path d="M859.68 533.31L967.38 521.7" stroke="rgba(0, 141, 150, 0.23)" stroke-width="1.5"></path><path d="M859.68 533.31L805.13 684.56" stroke="rgba(0, 141, 150, 0.23)" stroke-width="1.5"></path><path d="M859.68 533.31L663.28 536.33" stroke="rgba(0, 141, 150, 0.23)" stroke-width="1.5"></path><path d="M805.13 684.56L805.13 684.56" stroke="rgba(0, 141, 150, 0.23)" stroke-width="1.5"></path><path d="M979.02 -95.3L979.02 -95.3" stroke="rgba(0, 141, 150, 0.23)" stroke-width="1.5"></path><path d="M979.02 -95.3L1088.12 -95.63" stroke="rgba(0, 141, 150, 0.23)" stroke-width="1.5"></path><path d="M979.02 -95.3L1094.89 53.01" stroke="rgba(0, 141, 150, 0.23)" stroke-width="1.5"></path><path d="M979.02 -95.3L970.13 104.05" stroke="rgba(0, 141, 150, 0.23)" stroke-width="1.5"></path><path d="M970.13 104.05L970.13 104.05" stroke="rgba(0, 141, 150, 0.23)" stroke-width="1.5"></path><path d="M970.13 104.05L1094.89 53.01" stroke="rgba(0, 141, 150, 0.23)" stroke-width="1.5"></path><path d="M970.13 104.05L982.85 250.26" stroke="rgba(0, 141, 150, 0.23)" stroke-width="1.5"></path><path d="M970.13 104.05L1134.82 230.73" stroke="rgba(0, 141, 150, 0.23)" stroke-width="1.5"></path><path d="M970.13 104.05L791.96 251.55" stroke="rgba(0, 141, 150, 0.23)" stroke-width="1.5"></path><path d="M982.85 250.26L982.85 250.26" stroke="rgba(0, 141, 150, 0.23)" stroke-width="1.5"></path><path d="M982.85 250.26L1006.09 372.8" stroke="rgba(0, 141, 150, 0.23)" stroke-width="1.5"></path><path d="M982.85 250.26L1134.82 230.73" stroke="rgba(0, 141, 150, 0.23)" stroke-width="1.5"></path><path d="M982.85 250.26L835.62 401.5" stroke="rgba(0, 141, 150, 0.23)" stroke-width="1.5"></path><path d="M1006.09 372.8L1006.09 372.8" stroke="rgba(0, 141, 150, 0.23)" stroke-width="1.5"></path><path d="M1006.09 372.8L967.38 521.7" stroke="rgba(0, 141, 150, 0.23)" stroke-width="1.5"></path><path d="M967.38 521.7L967.38 521.7" stroke="rgba(0, 141, 150, 0.23)" stroke-width="1.5"></path><path d="M984.95 703.6L984.95 703.6" stroke="rgba(0, 141, 150, 0.23)" stroke-width="1.5"></path><path d="M984.95 703.6L1123.85 686.16" stroke="rgba(0, 141, 150, 0.23)" stroke-width="1.5"></path><path d="M1088.12 -95.63L1088.12 -95.63" stroke="rgba(0, 141, 150, 0.23)" stroke-width="1.5"></path><path d="M1088.12 -95.63L1094.89 53.01" stroke="rgba(0, 141, 150, 0.23)" stroke-width="1.5"></path><path d="M1088.12 -95.63L1296.41 -53.99" stroke="rgba(0, 141, 150, 0.23)" stroke-width="1.5"></path><path d="M1088.12 -95.63L970.13 104.05" stroke="rgba(0, 141, 150, 0.23)" stroke-width="1.5"></path><path d="M1088.12 -95.63L1134.82 230.73" stroke="rgba(0, 141, 150, 0.23)" stroke-width="1.5"></path><path d="M1088.12 -95.63L1255.7 198.06" stroke="rgba(0, 141, 150, 0.23)" stroke-width="1.5"></path><path d="M1094.89 53.01L1094.89 53.01" stroke="rgba(0, 141, 150, 0.23)" stroke-width="1.5"></path><path d="M1094.89 53.01L1134.82 230.73" stroke="rgba(0, 141, 150, 0.23)" stroke-width="1.5"></path><path d="M1094.89 53.01L1255.7 198.06" stroke="rgba(0, 141, 150, 0.23)" stroke-width="1.5"></path><path d="M1094.89 53.01L982.85 250.26" stroke="rgba(0, 141, 150, 0.23)" stroke-width="1.5"></path><path d="M1134.82 230.73L1134.82 230.73" stroke="rgba(0, 141, 150, 0.23)" stroke-width="1.5"></path><path d="M1134.82 230.73L1255.7 198.06" stroke="rgba(0, 141, 150, 0.23)" stroke-width="1.5"></path><path d="M1131.58 499.58L1131.58 499.58" stroke="rgba(0, 141, 150, 0.23)" stroke-width="1.5"></path><path d="M1131.58 499.58L1249.24 496.79" stroke="rgba(0, 141, 150, 0.23)" stroke-width="1.5"></path><path d="M1131.58 499.58L967.38 521.7" stroke="rgba(0, 141, 150, 0.23)" stroke-width="1.5"></path><path d="M1123.85 686.16L1123.85 686.16" stroke="rgba(0, 141, 150, 0.23)" stroke-width="1.5"></path><path d="M1123.85 686.16L1243.07 641.68" stroke="rgba(0, 141, 150, 0.23)" stroke-width="1.5"></path><path d="M1123.85 686.16L1131.58 499.58" stroke="rgba(0, 141, 150, 0.23)" stroke-width="1.5"></path><path d="M1123.85 686.16L967.38 521.7" stroke="rgba(0, 141, 150, 0.23)" stroke-width="1.5"></path><path d="M1123.85 686.16L1249.24 496.79" stroke="rgba(0, 141, 150, 0.23)" stroke-width="1.5"></path><path d="M1123.85 686.16L859.68 533.31" stroke="rgba(0, 141, 150, 0.23)" stroke-width="1.5"></path><path d="M1296.41 -53.99L1296.41 -53.99" stroke="rgba(0, 141, 150, 0.23)" stroke-width="1.5"></path><path d="M1296.41 -53.99L1442.76 -111.15" stroke="rgba(0, 141, 150, 0.23)" stroke-width="1.5"></path><path d="M1296.41 -53.99L1094.89 53.01" stroke="rgba(0, 141, 150, 0.23)" stroke-width="1.5"></path><path d="M1296.41 -53.99L1255.7 198.06" stroke="rgba(0, 141, 150, 0.23)" stroke-width="1.5"></path><path d="M1255.7 198.06L1255.7 198.06" stroke="rgba(0, 141, 150, 0.23)" stroke-width="1.5"></path><path d="M1255.7 198.06L1271.1 367.94" stroke="rgba(0, 141, 150, 0.23)" stroke-width="1.5"></path><path d="M1271.1 367.94L1271.1 367.94" stroke="rgba(0, 141, 150, 0.23)" stroke-width="1.5"></path><path d="M1271.1 367.94L1249.24 496.79" stroke="rgba(0, 141, 150, 0.23)" stroke-width="1.5"></path><path d="M1249.24 496.79L1249.24 496.79" stroke="rgba(0, 141, 150, 0.23)" stroke-width="1.5"></path><path d="M1249.24 496.79L1243.07 641.68" stroke="rgba(0, 141, 150, 0.23)" stroke-width="1.5"></path><path d="M1249.24 496.79L1418.03 511.76" stroke="rgba(0, 141, 150, 0.23)" stroke-width="1.5"></path><path d="M1243.07 641.68L1243.07 641.68" stroke="rgba(0, 141, 150, 0.23)" stroke-width="1.5"></path><path d="M1243.07 641.68L1131.58 499.58" stroke="rgba(0, 141, 150, 0.23)" stroke-width="1.5"></path><path d="M1243.07 641.68L1441.24 686.88" stroke="rgba(0, 141, 150, 0.23)" stroke-width="1.5"></path><path d="M1243.07 641.68L1418.03 511.76" stroke="rgba(0, 141, 150, 0.23)" stroke-width="1.5"></path><path d="M1442.76 -111.15L1442.76 -111.15" stroke="rgba(0, 141, 150, 0.23)" stroke-width="1.5"></path><path d="M1442.76 -111.15L1575.28 -85.91" stroke="rgba(0, 141, 150, 0.23)" stroke-width="1.5"></path><path d="M1442.76 -111.15L1575.72 79.58" stroke="rgba(0, 141, 150, 0.23)" stroke-width="1.5"></path><path d="M1432.01 220.24L1432.01 220.24" stroke="rgba(0, 141, 150, 0.23)" stroke-width="1.5"></path><path d="M1432.01 220.24L1255.7 198.06" stroke="rgba(0, 141, 150, 0.23)" stroke-width="1.5"></path><path d="M1432.01 220.24L1439.39 405.73" stroke="rgba(0, 141, 150, 0.23)" stroke-width="1.5"></path><path d="M1432.01 220.24L1575.72 79.58" stroke="rgba(0, 141, 150, 0.23)" stroke-width="1.5"></path><path d="M1439.39 405.73L1439.39 405.73" stroke="rgba(0, 141, 150, 0.23)" stroke-width="1.5"></path><path d="M1439.39 405.73L1418.03 511.76" stroke="rgba(0, 141, 150, 0.23)" stroke-width="1.5"></path><path d="M1418.03 511.76L1418.03 511.76" stroke="rgba(0, 141, 150, 0.23)" stroke-width="1.5"></path><path d="M1418.03 511.76L1574.72 533.34" stroke="rgba(0, 141, 150, 0.23)" stroke-width="1.5"></path><path d="M1418.03 511.76L1441.24 686.88" stroke="rgba(0, 141, 150, 0.23)" stroke-width="1.5"></path><path d="M1418.03 511.76L1271.1 367.94" stroke="rgba(0, 141, 150, 0.23)" stroke-width="1.5"></path><path d="M1441.24 686.88L1441.24 686.88" stroke="rgba(0, 141, 150, 0.23)" stroke-width="1.5"></path><path d="M1441.24 686.88L1583.27 687.59" stroke="rgba(0, 141, 150, 0.23)" stroke-width="1.5"></path><path d="M1441.24 686.88L1574.72 533.34" stroke="rgba(0, 141, 150, 0.23)" stroke-width="1.5"></path><path d="M1441.24 686.88L1249.24 496.79" stroke="rgba(0, 141, 150, 0.23)" stroke-width="1.5"></path><path d="M1441.24 686.88L1439.39 405.73" stroke="rgba(0, 141, 150, 0.23)" stroke-width="1.5"></path><path d="M1575.28 -85.91L1575.28 -85.91" stroke="rgba(0, 141, 150, 0.23)" stroke-width="1.5"></path><path d="M1575.28 -85.91L1575.72 79.58" stroke="rgba(0, 141, 150, 0.23)" stroke-width="1.5"></path><path d="M1575.28 -85.91L1296.41 -53.99" stroke="rgba(0, 141, 150, 0.23)" stroke-width="1.5"></path><path d="M1575.72 79.58L1575.72 79.58" stroke="rgba(0, 141, 150, 0.23)" stroke-width="1.5"></path><path d="M1601.71 398.94L1601.71 398.94" stroke="rgba(0, 141, 150, 0.23)" stroke-width="1.5"></path><path d="M1601.71 398.94L1574.72 533.34" stroke="rgba(0, 141, 150, 0.23)" stroke-width="1.5"></path><path d="M1574.72 533.34L1574.72 533.34" stroke="rgba(0, 141, 150, 0.23)" stroke-width="1.5"></path><path d="M1574.72 533.34L1583.27 687.59" stroke="rgba(0, 141, 150, 0.23)" stroke-width="1.5"></path><path d="M1583.27 687.59L1583.27 687.59" stroke="rgba(0, 141, 150, 0.23)" stroke-width="1.5"></path><path d="M1583.27 687.59L1418.03 511.76" stroke="rgba(0, 141, 150, 0.23)" stroke-width="1.5"></path><path d="M1583.27 687.59L1601.71 398.94" stroke="rgba(0, 141, 150, 0.23)" stroke-width="1.5"></path><path d="M1583.27 687.59L1439.39 405.73" stroke="rgba(0, 141, 150, 0.23)" stroke-width="1.5"></path><path d="M1583.27 687.59L1243.07 641.68" stroke="rgba(0, 141, 150, 0.23)" stroke-width="1.5"></path><circle r="5" cx="-86.5" cy="395.31" fill="rgba(0, 141, 150, 0.23)"></circle><circle r="5" cx="-42.84" cy="515.69" fill="rgba(0, 141, 150, 0.23)"></circle><circle r="5" cx="-77.38" cy="706.61" fill="rgba(0, 141, 150, 0.23)"></circle><circle r="5" cx="83.83" cy="383.24" fill="rgba(0, 141, 150, 0.23)"></circle><circle r="5" cx="58.09" cy="551.51" fill="rgba(0, 141, 150, 0.23)"></circle><circle r="5" cx="234.57" cy="351.52" fill="rgba(0, 141, 150, 0.23)"></circle><circle r="5" cx="200.03" cy="549.25" fill="rgba(0, 141, 150, 0.23)"></circle><circle r="5" cx="228.46" cy="670.77" fill="rgba(0, 141, 150, 0.23)"></circle><circle r="5" cx="370.27" cy="366.32" fill="rgba(0, 141, 150, 0.23)"></circle><circle r="5" cx="359.19" cy="489.78" fill="rgba(0, 141, 150, 0.23)"></circle><circle r="5" cx="347.27" cy="645.76" fill="rgba(0, 141, 150, 0.23)"></circle><circle r="5" cx="497.85" cy="357.92" fill="rgba(0, 141, 150, 0.23)"></circle><circle r="5" cx="542.05" cy="534.66" fill="rgba(0, 141, 150, 0.23)"></circle><circle r="5" cx="527.74" cy="640.66" fill="rgba(0, 141, 150, 0.23)"></circle><circle r="5" cx="673.71" cy="382.79" fill="rgba(0, 141, 150, 0.23)"></circle><circle r="5" cx="663.28" cy="536.33" fill="rgba(0, 141, 150, 0.23)"></circle><circle r="5" cx="662.39" cy="702.57" fill="rgba(0, 141, 150, 0.23)"></circle><circle r="5" cx="791.96" cy="251.55" fill="rgba(0, 141, 150, 0.23)"></circle><circle r="5" cx="835.62" cy="401.5" fill="rgba(0, 141, 150, 0.23)"></circle><circle r="5" cx="859.68" cy="533.31" fill="rgba(0, 141, 150, 0.23)"></circle><circle r="5" cx="805.13" cy="684.56" fill="rgba(0, 141, 150, 0.23)"></circle><circle r="5" cx="979.02" cy="-95.3" fill="rgba(0, 141, 150, 0.23)"></circle><circle r="5" cx="970.13" cy="104.05" fill="rgba(0, 141, 150, 0.23)"></circle><circle r="5" cx="982.85" cy="250.26" fill="rgba(0, 141, 150, 0.23)"></circle><circle r="5" cx="1006.09" cy="372.8" fill="rgba(0, 141, 150, 0.23)"></circle><circle r="5" cx="967.38" cy="521.7" fill="rgba(0, 141, 150, 0.23)"></circle><circle r="5" cx="984.95" cy="703.6" fill="rgba(0, 141, 150, 0.23)"></circle><circle r="5" cx="1088.12" cy="-95.63" fill="rgba(0, 141, 150, 0.23)"></circle><circle r="5" cx="1094.89" cy="53.01" fill="rgba(0, 141, 150, 0.23)"></circle><circle r="5" cx="1134.82" cy="230.73" fill="rgba(0, 141, 150, 0.23)"></circle><circle r="5" cx="1131.58" cy="499.58" fill="rgba(0, 141, 150, 0.23)"></circle><circle r="5" cx="1123.85" cy="686.16" fill="rgba(0, 141, 150, 0.23)"></circle><circle r="5" cx="1296.41" cy="-53.99" fill="rgba(0, 141, 150, 0.23)"></circle><circle r="5" cx="1255.7" cy="198.06" fill="rgba(0, 141, 150, 0.23)"></circle><circle r="5" cx="1271.1" cy="367.94" fill="rgba(0, 141, 150, 0.23)"></circle><circle r="5" cx="1249.24" cy="496.79" fill="rgba(0, 141, 150, 0.23)"></circle><circle r="5" cx="1243.07" cy="641.68" fill="rgba(0, 141, 150, 0.23)"></circle><circle r="5" cx="1442.76" cy="-111.15" fill="rgba(0, 141, 150, 0.23)"></circle><circle r="5" cx="1432.01" cy="220.24" fill="rgba(0, 141, 150, 0.23)"></circle><circle r="5" cx="1439.39" cy="405.73" fill="rgba(0, 141, 150, 0.23)"></circle><circle r="5" cx="1418.03" cy="511.76" fill="rgba(0, 141, 150, 0.23)"></circle><circle r="5" cx="1441.24" cy="686.88" fill="rgba(0, 141, 150, 0.23)"></circle><circle r="5" cx="1575.28" cy="-85.91" fill="rgba(0, 141, 150, 0.23)"></circle><circle r="5" cx="1575.72" cy="79.58" fill="rgba(0, 141, 150, 0.23)"></circle><circle r="5" cx="1601.71" cy="398.94" fill="rgba(0, 141, 150, 0.23)"></circle><circle r="5" cx="1574.72" cy="533.34" fill="rgba(0, 141, 150, 0.23)"></circle><circle r="5" cx="1583.27" cy="687.59" fill="rgba(0, 141, 150, 0.23)"></circle><path d="M78.14 644.79L78.14 644.79" stroke="hsla(183.60000000000002, 98.3%, 30.1%, 0.18)" stroke-width="1.5"></path><path d="M78.14 644.79L48.66 522.74" stroke="hsla(183.60000000000002, 98.3%, 30.1%, 0.18)" stroke-width="1.5"></path><path d="M78.14 644.79L211.06 558.85" stroke="hsla(183.60000000000002, 98.3%, 30.1%, 0.18)" stroke-width="1.5"></path><path d="M239.44 657.82L239.44 657.82" stroke="hsla(183.60000000000002, 98.3%, 30.1%, 0.18)" stroke-width="1.5"></path><path d="M239.44 657.82L211.06 558.85" stroke="hsla(183.60000000000002, 98.3%, 30.1%, 0.18)" stroke-width="1.5"></path><path d="M239.44 657.82L388.71 665.52" stroke="hsla(183.60000000000002, 98.3%, 30.1%, 0.18)" stroke-width="1.5"></path><path d="M239.44 657.82L78.14 644.79" stroke="hsla(183.60000000000002, 98.3%, 30.1%, 0.18)" stroke-width="1.5"></path><path d="M239.44 657.82L375.92 490.41" stroke="hsla(183.60000000000002, 98.3%, 30.1%, 0.18)" stroke-width="1.5"></path><path d="M239.44 657.82L48.66 522.74" stroke="hsla(183.60000000000002, 98.3%, 30.1%, 0.18)" stroke-width="1.5"></path><path d="M524.95 711.48L524.95 711.48" stroke="hsla(183.60000000000002, 98.3%, 30.1%, 0.18)" stroke-width="1.5"></path><path d="M524.95 711.48L644.25 645.77" stroke="hsla(183.60000000000002, 98.3%, 30.1%, 0.18)" stroke-width="1.5"></path><path d="M524.95 711.48L388.71 665.52" stroke="hsla(183.60000000000002, 98.3%, 30.1%, 0.18)" stroke-width="1.5"></path><path d="M1155.52 338.89L1155.52 338.89" stroke="hsla(183.60000000000002, 98.3%, 30.1%, 0.18)" stroke-width="1.5"></path><path d="M1155.52 338.89L1261.81 383.91" stroke="hsla(183.60000000000002, 98.3%, 30.1%, 0.18)" stroke-width="1.5"></path><path d="M1155.52 338.89L1245.46 234.53" stroke="hsla(183.60000000000002, 98.3%, 30.1%, 0.18)" stroke-width="1.5"></path><path d="M1155.52 338.89L1149.5 550.65" stroke="hsla(183.60000000000002, 98.3%, 30.1%, 0.18)" stroke-width="1.5"></path><path d="M1155.52 338.89L941.7 404.17" stroke="hsla(183.60000000000002, 98.3%, 30.1%, 0.18)" stroke-width="1.5"></path><path d="M1087.73 642.51L1087.73 642.51" stroke="hsla(183.60000000000002, 98.3%, 30.1%, 0.18)" stroke-width="1.5"></path><path d="M1087.73 642.51L981.52 646.84" stroke="hsla(183.60000000000002, 98.3%, 30.1%, 0.18)" stroke-width="1.5"></path><path d="M1087.73 642.51L1149.5 550.65" stroke="hsla(183.60000000000002, 98.3%, 30.1%, 0.18)" stroke-width="1.5"></path><path d="M1087.73 642.51L1251.55 692.97" stroke="hsla(183.60000000000002, 98.3%, 30.1%, 0.18)" stroke-width="1.5"></path><path d="M1087.73 642.51L940.11 507.16" stroke="hsla(183.60000000000002, 98.3%, 30.1%, 0.18)" stroke-width="1.5"></path><path d="M1251.55 692.97L1251.55 692.97" stroke="hsla(183.60000000000002, 98.3%, 30.1%, 0.18)" stroke-width="1.5"></path><path d="M1251.55 692.97L1268.07 537.79" stroke="hsla(183.60000000000002, 98.3%, 30.1%, 0.18)" stroke-width="1.5"></path><path d="M1251.55 692.97L1417.33 700.55" stroke="hsla(183.60000000000002, 98.3%, 30.1%, 0.18)" stroke-width="1.5"></path><path d="M1251.55 692.97L1149.5 550.65" stroke="hsla(183.60000000000002, 98.3%, 30.1%, 0.18)" stroke-width="1.5"></path><path d="M1251.55 692.97L1428.39 525.78" stroke="hsla(183.60000000000002, 98.3%, 30.1%, 0.18)" stroke-width="1.5"></path><path d="M1251.55 692.97L981.52 646.84" stroke="hsla(183.60000000000002, 98.3%, 30.1%, 0.18)" stroke-width="1.5"></path><path d="M-53.15 510.81L-53.15 510.81" stroke="hsla(183.60000000000002, 98.3%, 30.1%, 0.18)" stroke-width="1.5"></path><path d="M-53.15 510.81L48.66 522.74" stroke="hsla(183.60000000000002, 98.3%, 30.1%, 0.18)" stroke-width="1.5"></path><path d="M-53.15 510.81L-97.11 648.57" stroke="hsla(183.60000000000002, 98.3%, 30.1%, 0.18)" stroke-width="1.5"></path><path d="M-97.11 648.57L-97.11 648.57" stroke="hsla(183.60000000000002, 98.3%, 30.1%, 0.18)" stroke-width="1.5"></path><path d="M-97.11 648.57L78.14 644.79" stroke="hsla(183.60000000000002, 98.3%, 30.1%, 0.18)" stroke-width="1.5"></path><path d="M-97.11 648.57L48.66 522.74" stroke="hsla(183.60000000000002, 98.3%, 30.1%, 0.18)" stroke-width="1.5"></path><path d="M-97.11 648.57L211.06 558.85" stroke="hsla(183.60000000000002, 98.3%, 30.1%, 0.18)" stroke-width="1.5"></path><path d="M48.66 522.74L48.66 522.74" stroke="hsla(183.60000000000002, 98.3%, 30.1%, 0.18)" stroke-width="1.5"></path><path d="M48.66 522.74L211.06 558.85" stroke="hsla(183.60000000000002, 98.3%, 30.1%, 0.18)" stroke-width="1.5"></path><path d="M211.06 558.85L211.06 558.85" stroke="hsla(183.60000000000002, 98.3%, 30.1%, 0.18)" stroke-width="1.5"></path><path d="M211.06 558.85L375.92 490.41" stroke="hsla(183.60000000000002, 98.3%, 30.1%, 0.18)" stroke-width="1.5"></path><path d="M375.92 490.41L375.92 490.41" stroke="hsla(183.60000000000002, 98.3%, 30.1%, 0.18)" stroke-width="1.5"></path><path d="M375.92 490.41L508.57 411.47" stroke="hsla(183.60000000000002, 98.3%, 30.1%, 0.18)" stroke-width="1.5"></path><path d="M375.92 490.41L388.71 665.52" stroke="hsla(183.60000000000002, 98.3%, 30.1%, 0.18)" stroke-width="1.5"></path><path d="M375.92 490.41L552.47 557.22" stroke="hsla(183.60000000000002, 98.3%, 30.1%, 0.18)" stroke-width="1.5"></path><path d="M375.92 490.41L524.95 711.48" stroke="hsla(183.60000000000002, 98.3%, 30.1%, 0.18)" stroke-width="1.5"></path><path d="M388.71 665.52L388.71 665.52" stroke="hsla(183.60000000000002, 98.3%, 30.1%, 0.18)" stroke-width="1.5"></path><path d="M388.71 665.52L552.47 557.22" stroke="hsla(183.60000000000002, 98.3%, 30.1%, 0.18)" stroke-width="1.5"></path><path d="M388.71 665.52L211.06 558.85" stroke="hsla(183.60000000000002, 98.3%, 30.1%, 0.18)" stroke-width="1.5"></path><path d="M508.57 411.47L508.57 411.47" stroke="hsla(183.60000000000002, 98.3%, 30.1%, 0.18)" stroke-width="1.5"></path><path d="M508.57 411.47L552.47 557.22" stroke="hsla(183.60000000000002, 98.3%, 30.1%, 0.18)" stroke-width="1.5"></path><path d="M508.57 411.47L654.78 541.26" stroke="hsla(183.60000000000002, 98.3%, 30.1%, 0.18)" stroke-width="1.5"></path><path d="M508.57 411.47L644.25 645.77" stroke="hsla(183.60000000000002, 98.3%, 30.1%, 0.18)" stroke-width="1.5"></path><path d="M508.57 411.47L388.71 665.52" stroke="hsla(183.60000000000002, 98.3%, 30.1%, 0.18)" stroke-width="1.5"></path><path d="M552.47 557.22L552.47 557.22" stroke="hsla(183.60000000000002, 98.3%, 30.1%, 0.18)" stroke-width="1.5"></path><path d="M552.47 557.22L654.78 541.26" stroke="hsla(183.60000000000002, 98.3%, 30.1%, 0.18)" stroke-width="1.5"></path><path d="M552.47 557.22L644.25 645.77" stroke="hsla(183.60000000000002, 98.3%, 30.1%, 0.18)" stroke-width="1.5"></path><path d="M654.78 541.26L654.78 541.26" stroke="hsla(183.60000000000002, 98.3%, 30.1%, 0.18)" stroke-width="1.5"></path><path d="M654.78 541.26L644.25 645.77" stroke="hsla(183.60000000000002, 98.3%, 30.1%, 0.18)" stroke-width="1.5"></path><path d="M654.78 541.26L799.71 663.38" stroke="hsla(183.60000000000002, 98.3%, 30.1%, 0.18)" stroke-width="1.5"></path><path d="M654.78 541.26L853.18 540.24" stroke="hsla(183.60000000000002, 98.3%, 30.1%, 0.18)" stroke-width="1.5"></path><path d="M654.78 541.26L524.95 711.48" stroke="hsla(183.60000000000002, 98.3%, 30.1%, 0.18)" stroke-width="1.5"></path><path d="M644.25 645.77L644.25 645.77" stroke="hsla(183.60000000000002, 98.3%, 30.1%, 0.18)" stroke-width="1.5"></path><path d="M814.96 342.13L814.96 342.13" stroke="hsla(183.60000000000002, 98.3%, 30.1%, 0.18)" stroke-width="1.5"></path><path d="M814.96 342.13L941.7 404.17" stroke="hsla(183.60000000000002, 98.3%, 30.1%, 0.18)" stroke-width="1.5"></path><path d="M814.96 342.13L853.18 540.24" stroke="hsla(183.60000000000002, 98.3%, 30.1%, 0.18)" stroke-width="1.5"></path><path d="M814.96 342.13L940.11 507.16" stroke="hsla(183.60000000000002, 98.3%, 30.1%, 0.18)" stroke-width="1.5"></path><path d="M814.96 342.13L654.78 541.26" stroke="hsla(183.60000000000002, 98.3%, 30.1%, 0.18)" stroke-width="1.5"></path><path d="M853.18 540.24L853.18 540.24" stroke="hsla(183.60000000000002, 98.3%, 30.1%, 0.18)" stroke-width="1.5"></path><path d="M853.18 540.24L940.11 507.16" stroke="hsla(183.60000000000002, 98.3%, 30.1%, 0.18)" stroke-width="1.5"></path><path d="M853.18 540.24L799.71 663.38" stroke="hsla(183.60000000000002, 98.3%, 30.1%, 0.18)" stroke-width="1.5"></path><path d="M853.18 540.24L941.7 404.17" stroke="hsla(183.60000000000002, 98.3%, 30.1%, 0.18)" stroke-width="1.5"></path><path d="M799.71 663.38L799.71 663.38" stroke="hsla(183.60000000000002, 98.3%, 30.1%, 0.18)" stroke-width="1.5"></path><path d="M799.71 663.38L644.25 645.77" stroke="hsla(183.60000000000002, 98.3%, 30.1%, 0.18)" stroke-width="1.5"></path><path d="M799.71 663.38L981.52 646.84" stroke="hsla(183.60000000000002, 98.3%, 30.1%, 0.18)" stroke-width="1.5"></path><path d="M799.71 663.38L940.11 507.16" stroke="hsla(183.60000000000002, 98.3%, 30.1%, 0.18)" stroke-width="1.5"></path><path d="M941.7 404.17L941.7 404.17" stroke="hsla(183.60000000000002, 98.3%, 30.1%, 0.18)" stroke-width="1.5"></path><path d="M941.7 404.17L940.11 507.16" stroke="hsla(183.60000000000002, 98.3%, 30.1%, 0.18)" stroke-width="1.5"></path><path d="M940.11 507.16L940.11 507.16" stroke="hsla(183.60000000000002, 98.3%, 30.1%, 0.18)" stroke-width="1.5"></path><path d="M981.52 646.84L981.52 646.84" stroke="hsla(183.60000000000002, 98.3%, 30.1%, 0.18)" stroke-width="1.5"></path><path d="M981.52 646.84L940.11 507.16" stroke="hsla(183.60000000000002, 98.3%, 30.1%, 0.18)" stroke-width="1.5"></path><path d="M981.52 646.84L853.18 540.24" stroke="hsla(183.60000000000002, 98.3%, 30.1%, 0.18)" stroke-width="1.5"></path><path d="M981.52 646.84L1149.5 550.65" stroke="hsla(183.60000000000002, 98.3%, 30.1%, 0.18)" stroke-width="1.5"></path><path d="M1149.5 550.65L1149.5 550.65" stroke="hsla(183.60000000000002, 98.3%, 30.1%, 0.18)" stroke-width="1.5"></path><path d="M1149.5 550.65L1268.07 537.79" stroke="hsla(183.60000000000002, 98.3%, 30.1%, 0.18)" stroke-width="1.5"></path><path d="M1274.01 -43.87L1274.01 -43.87" stroke="hsla(183.60000000000002, 98.3%, 30.1%, 0.18)" stroke-width="1.5"></path><path d="M1274.01 -43.87L1268.66 91.15" stroke="hsla(183.60000000000002, 98.3%, 30.1%, 0.18)" stroke-width="1.5"></path><path d="M1274.01 -43.87L1396.03 56.3" stroke="hsla(183.60000000000002, 98.3%, 30.1%, 0.18)" stroke-width="1.5"></path><path d="M1274.01 -43.87L1439.94 -111.31" stroke="hsla(183.60000000000002, 98.3%, 30.1%, 0.18)" stroke-width="1.5"></path><path d="M1274.01 -43.87L1245.46 234.53" stroke="hsla(183.60000000000002, 98.3%, 30.1%, 0.18)" stroke-width="1.5"></path><path d="M1274.01 -43.87L1411.47 208.86" stroke="hsla(183.60000000000002, 98.3%, 30.1%, 0.18)" stroke-width="1.5"></path><path d="M1268.66 91.15L1268.66 91.15" stroke="hsla(183.60000000000002, 98.3%, 30.1%, 0.18)" stroke-width="1.5"></path><path d="M1268.66 91.15L1396.03 56.3" stroke="hsla(183.60000000000002, 98.3%, 30.1%, 0.18)" stroke-width="1.5"></path><path d="M1245.46 234.53L1245.46 234.53" stroke="hsla(183.60000000000002, 98.3%, 30.1%, 0.18)" stroke-width="1.5"></path><path d="M1245.46 234.53L1268.66 91.15" stroke="hsla(183.60000000000002, 98.3%, 30.1%, 0.18)" stroke-width="1.5"></path><path d="M1245.46 234.53L1261.81 383.91" stroke="hsla(183.60000000000002, 98.3%, 30.1%, 0.18)" stroke-width="1.5"></path><path d="M1245.46 234.53L1411.47 208.86" stroke="hsla(183.60000000000002, 98.3%, 30.1%, 0.18)" stroke-width="1.5"></path><path d="M1245.46 234.53L1418.35 355.72" stroke="hsla(183.60000000000002, 98.3%, 30.1%, 0.18)" stroke-width="1.5"></path><path d="M1245.46 234.53L1396.03 56.3" stroke="hsla(183.60000000000002, 98.3%, 30.1%, 0.18)" stroke-width="1.5"></path><path d="M1261.81 383.91L1261.81 383.91" stroke="hsla(183.60000000000002, 98.3%, 30.1%, 0.18)" stroke-width="1.5"></path><path d="M1261.81 383.91L1268.07 537.79" stroke="hsla(183.60000000000002, 98.3%, 30.1%, 0.18)" stroke-width="1.5"></path><path d="M1261.81 383.91L1418.35 355.72" stroke="hsla(183.60000000000002, 98.3%, 30.1%, 0.18)" stroke-width="1.5"></path><path d="M1261.81 383.91L1149.5 550.65" stroke="hsla(183.60000000000002, 98.3%, 30.1%, 0.18)" stroke-width="1.5"></path><path d="M1268.07 537.79L1268.07 537.79" stroke="hsla(183.60000000000002, 98.3%, 30.1%, 0.18)" stroke-width="1.5"></path><path d="M1268.07 537.79L1428.39 525.78" stroke="hsla(183.60000000000002, 98.3%, 30.1%, 0.18)" stroke-width="1.5"></path><path d="M1439.94 -111.31L1439.94 -111.31" stroke="hsla(183.60000000000002, 98.3%, 30.1%, 0.18)" stroke-width="1.5"></path><path d="M1439.94 -111.31L1581.61 -105.24" stroke="hsla(183.60000000000002, 98.3%, 30.1%, 0.18)" stroke-width="1.5"></path><path d="M1439.94 -111.31L1396.03 56.3" stroke="hsla(183.60000000000002, 98.3%, 30.1%, 0.18)" stroke-width="1.5"></path><path d="M1439.94 -111.31L1538.15 100.29" stroke="hsla(183.60000000000002, 98.3%, 30.1%, 0.18)" stroke-width="1.5"></path><path d="M1439.94 -111.31L1268.66 91.15" stroke="hsla(183.60000000000002, 98.3%, 30.1%, 0.18)" stroke-width="1.5"></path><path d="M1439.94 -111.31L1411.47 208.86" stroke="hsla(183.60000000000002, 98.3%, 30.1%, 0.18)" stroke-width="1.5"></path><path d="M1396.03 56.3L1396.03 56.3" stroke="hsla(183.60000000000002, 98.3%, 30.1%, 0.18)" stroke-width="1.5"></path><path d="M1396.03 56.3L1538.15 100.29" stroke="hsla(183.60000000000002, 98.3%, 30.1%, 0.18)" stroke-width="1.5"></path><path d="M1396.03 56.3L1411.47 208.86" stroke="hsla(183.60000000000002, 98.3%, 30.1%, 0.18)" stroke-width="1.5"></path><path d="M1411.47 208.86L1411.47 208.86" stroke="hsla(183.60000000000002, 98.3%, 30.1%, 0.18)" stroke-width="1.5"></path><path d="M1411.47 208.86L1418.35 355.72" stroke="hsla(183.60000000000002, 98.3%, 30.1%, 0.18)" stroke-width="1.5"></path><path d="M1411.47 208.86L1575.01 238.95" stroke="hsla(183.60000000000002, 98.3%, 30.1%, 0.18)" stroke-width="1.5"></path><path d="M1411.47 208.86L1538.15 100.29" stroke="hsla(183.60000000000002, 98.3%, 30.1%, 0.18)" stroke-width="1.5"></path><path d="M1418.35 355.72L1418.35 355.72" stroke="hsla(183.60000000000002, 98.3%, 30.1%, 0.18)" stroke-width="1.5"></path><path d="M1428.39 525.78L1428.39 525.78" stroke="hsla(183.60000000000002, 98.3%, 30.1%, 0.18)" stroke-width="1.5"></path><path d="M1428.39 525.78L1418.35 355.72" stroke="hsla(183.60000000000002, 98.3%, 30.1%, 0.18)" stroke-width="1.5"></path><path d="M1428.39 525.78L1598.49 492.35" stroke="hsla(183.60000000000002, 98.3%, 30.1%, 0.18)" stroke-width="1.5"></path><path d="M1428.39 525.78L1417.33 700.55" stroke="hsla(183.60000000000002, 98.3%, 30.1%, 0.18)" stroke-width="1.5"></path><path d="M1428.39 525.78L1585.15 661.35" stroke="hsla(183.60000000000002, 98.3%, 30.1%, 0.18)" stroke-width="1.5"></path><path d="M1428.39 525.78L1261.81 383.91" stroke="hsla(183.60000000000002, 98.3%, 30.1%, 0.18)" stroke-width="1.5"></path><path d="M1417.33 700.55L1417.33 700.55" stroke="hsla(183.60000000000002, 98.3%, 30.1%, 0.18)" stroke-width="1.5"></path><path d="M1417.33 700.55L1585.15 661.35" stroke="hsla(183.60000000000002, 98.3%, 30.1%, 0.18)" stroke-width="1.5"></path><path d="M1417.33 700.55L1268.07 537.79" stroke="hsla(183.60000000000002, 98.3%, 30.1%, 0.18)" stroke-width="1.5"></path><path d="M1581.61 -105.24L1581.61 -105.24" stroke="hsla(183.60000000000002, 98.3%, 30.1%, 0.18)" stroke-width="1.5"></path><path d="M1581.61 -105.24L1538.15 100.29" stroke="hsla(183.60000000000002, 98.3%, 30.1%, 0.18)" stroke-width="1.5"></path><path d="M1538.15 100.29L1538.15 100.29" stroke="hsla(183.60000000000002, 98.3%, 30.1%, 0.18)" stroke-width="1.5"></path><path d="M1538.15 100.29L1575.01 238.95" stroke="hsla(183.60000000000002, 98.3%, 30.1%, 0.18)" stroke-width="1.5"></path><path d="M1575.01 238.95L1575.01 238.95" stroke="hsla(183.60000000000002, 98.3%, 30.1%, 0.18)" stroke-width="1.5"></path><path d="M1575.01 238.95L1609.57 366.16" stroke="hsla(183.60000000000002, 98.3%, 30.1%, 0.18)" stroke-width="1.5"></path><path d="M1575.01 238.95L1418.35 355.72" stroke="hsla(183.60000000000002, 98.3%, 30.1%, 0.18)" stroke-width="1.5"></path><path d="M1609.57 366.16L1609.57 366.16" stroke="hsla(183.60000000000002, 98.3%, 30.1%, 0.18)" stroke-width="1.5"></path><path d="M1609.57 366.16L1598.49 492.35" stroke="hsla(183.60000000000002, 98.3%, 30.1%, 0.18)" stroke-width="1.5"></path><path d="M1609.57 366.16L1418.35 355.72" stroke="hsla(183.60000000000002, 98.3%, 30.1%, 0.18)" stroke-width="1.5"></path><path d="M1598.49 492.35L1598.49 492.35" stroke="hsla(183.60000000000002, 98.3%, 30.1%, 0.18)" stroke-width="1.5"></path><path d="M1598.49 492.35L1585.15 661.35" stroke="hsla(183.60000000000002, 98.3%, 30.1%, 0.18)" stroke-width="1.5"></path><path d="M1585.15 661.35L1585.15 661.35" stroke="hsla(183.60000000000002, 98.3%, 30.1%, 0.18)" stroke-width="1.5"></path><path d="M1585.15 661.35L1609.57 366.16" stroke="hsla(183.60000000000002, 98.3%, 30.1%, 0.18)" stroke-width="1.5"></path><path d="M1585.15 661.35L1251.55 692.97" stroke="hsla(183.60000000000002, 98.3%, 30.1%, 0.18)" stroke-width="1.5"></path><path d="M1585.15 661.35L1268.07 537.79" stroke="hsla(183.60000000000002, 98.3%, 30.1%, 0.18)" stroke-width="1.5"></path><circle r="25" cx="78.14" cy="644.79" fill="url(#SvgjsRadialGradient1041)"></circle><circle r="25" cx="239.44" cy="657.82" fill="url(#SvgjsRadialGradient1041)"></circle><circle r="25" cx="524.95" cy="711.48" fill="url(#SvgjsRadialGradient1041)"></circle><circle r="25" cx="1155.52" cy="338.89" fill="url(#SvgjsRadialGradient1041)"></circle><circle r="25" cx="1087.73" cy="642.51" fill="url(#SvgjsRadialGradient1041)"></circle><circle r="25" cx="1251.55" cy="692.97" fill="url(#SvgjsRadialGradient1041)"></circle><circle r="5" cx="-53.15" cy="510.81" fill="rgba(232, 242, 243, 0.59)"></circle><circle r="5" cx="-97.11" cy="648.57" fill="rgba(232, 242, 243, 0.59)"></circle><circle r="5" cx="48.66" cy="522.74" fill="rgba(232, 242, 243, 0.59)"></circle><circle r="5" cx="211.06" cy="558.85" fill="rgba(232, 242, 243, 0.59)"></circle><circle r="5" cx="375.92" cy="490.41" fill="rgba(232, 242, 243, 0.59)"></circle><circle r="5" cx="388.71" cy="665.52" fill="rgba(232, 242, 243, 0.59)"></circle><circle r="5" cx="508.57" cy="411.47" fill="rgba(232, 242, 243, 0.59)"></circle><circle r="5" cx="552.47" cy="557.22" fill="rgba(232, 242, 243, 0.59)"></circle><circle r="5" cx="654.78" cy="541.26" fill="rgba(232, 242, 243, 0.59)"></circle><circle r="5" cx="644.25" cy="645.77" fill="rgba(232, 242, 243, 0.59)"></circle><circle r="5" cx="814.96" cy="342.13" fill="rgba(232, 242, 243, 0.59)"></circle><circle r="5" cx="853.18" cy="540.24" fill="rgba(232, 242, 243, 0.59)"></circle><circle r="5" cx="799.71" cy="663.38" fill="rgba(232, 242, 243, 0.59)"></circle><circle r="5" cx="941.7" cy="404.17" fill="rgba(232, 242, 243, 0.59)"></circle><circle r="5" cx="940.11" cy="507.16" fill="rgba(232, 242, 243, 0.59)"></circle><circle r="5" cx="981.52" cy="646.84" fill="rgba(232, 242, 243, 0.59)"></circle><circle r="5" cx="1149.5" cy="550.65" fill="rgba(232, 242, 243, 0.59)"></circle><circle r="5" cx="1274.01" cy="-43.87" fill="rgba(232, 242, 243, 0.59)"></circle><circle r="5" cx="1268.66" cy="91.15" fill="rgba(232, 242, 243, 0.59)"></circle><circle r="5" cx="1245.46" cy="234.53" fill="rgba(232, 242, 243, 0.59)"></circle><circle r="5" cx="1261.81" cy="383.91" fill="rgba(232, 242, 243, 0.59)"></circle><circle r="5" cx="1268.07" cy="537.79" fill="rgba(232, 242, 243, 0.59)"></circle><circle r="5" cx="1439.94" cy="-111.31" fill="rgba(232, 242, 243, 0.59)"></circle><circle r="5" cx="1396.03" cy="56.3" fill="rgba(232, 242, 243, 0.59)"></circle><circle r="5" cx="1411.47" cy="208.86" fill="rgba(232, 242, 243, 0.59)"></circle><circle r="5" cx="1418.35" cy="355.72" fill="rgba(232, 242, 243, 0.59)"></circle><circle r="5" cx="1428.39" cy="525.78" fill="rgba(232, 242, 243, 0.59)"></circle><circle r="5" cx="1417.33" cy="700.55" fill="rgba(232, 242, 243, 0.59)"></circle><circle r="5" cx="1581.61" cy="-105.24" fill="rgba(232, 242, 243, 0.59)"></circle><circle r="5" cx="1538.15" cy="100.29" fill="rgba(232, 242, 243, 0.59)"></circle><circle r="5" cx="1575.01" cy="238.95" fill="rgba(232, 242, 243, 0.59)"></circle><circle r="5" cx="1609.57" cy="366.16" fill="rgba(232, 242, 243, 0.59)"></circle><circle r="5" cx="1598.49" cy="492.35" fill="rgba(232, 242, 243, 0.59)"></circle><circle r="5" cx="1585.15" cy="661.35" fill="rgba(232, 242, 243, 0.59)"></circle></g><defs><mask id="SvgjsMask1040"><rect width="1440" height="560" fill="#ffffff"></rect></mask><radialGradient id="SvgjsRadialGradient1041"><stop stop-color="#ffffff" offset="0.1"></stop><stop stop-color="rgba(1, 110, 117, 0.18)" offset="0.2"></stop><stop stop-color="rgba(1, 110, 117, 0)" offset="1"></stop></radialGradient></defs></svg>