<svg xmlns="http://www.w3.org/2000/svg" width="375" viewBox="0 0 375 150" height="150" version="1.0"><path stroke-linecap="round" transform="matrix(6.2112 -5.41325 5.39514 6.19042 7.979 93.174)" fill="none" d="M 0.500047 0.000273954 L 9.150299 -0.0000761985" stroke="#5CE1E6"/><path stroke-linecap="round" transform="matrix(6.98462 4.44386 -4.40792 6.92814 7.122 89.133)" fill="none" d="M 0.499871 0.000105669 L 8.560534 0.0000843464" stroke="#FFF"/><path stroke-linecap="round" transform="matrix(0 8.2394 -8.18605 0 105.692 5.857)" fill="none" d="M 0.500016 0.0000318969 L 7.237841 0.0000318969" stroke="#FFF"/><path fill="#5CE1E6" d="M 106.132812 74.140625 C 88.113281 74.140625 73.507812 88.746094 73.507812 106.765625 C 73.507812 124.785156 88.113281 139.390625 106.132812 139.390625 C 124.152344 139.390625 138.757812 124.785156 138.757812 106.765625 C 138.757812 88.746094 124.152344 74.140625 106.132812 74.140625 Z M 106.132812 74.140625"/><g fill="#FFF"><g><g><path d="M 23.8125 0 L 18.8125 0 L 9.0625 -10.703125 L 4.765625 -6.75 L 4.765625 0 L 1.25 0 L 1.25 -33.40625 L 4.765625 -33.40625 L 4.765625 -11 L 18.359375 -23.859375 L 23.375 -23.859375 L 11.421875 -12.90625 Z M 23.8125 0" transform="translate(142.244 122.68)"/></g></g></g><g fill="#FFF"><g><g><path d="M -0.046875 -6.453125 C -0.046875 -7.953125 0.328125 -9.207031 1.078125 -10.21875 C 1.828125 -11.238281 2.8125 -12.039062 4.03125 -12.625 C 5.25 -13.21875 6.644531 -13.644531 8.21875 -13.90625 C 9.800781 -14.175781 11.410156 -14.3125 13.046875 -14.3125 C 13.679688 -14.3125 14.25 -14.300781 14.75 -14.28125 C 15.257812 -14.257812 15.738281 -14.234375 16.1875 -14.203125 C 16.644531 -14.171875 17.101562 -14.128906 17.5625 -14.078125 C 18.019531 -14.023438 18.519531 -13.96875 19.0625 -13.90625 L 19.0625 -15.609375 C 19.0625 -16.773438 18.8125 -17.734375 18.3125 -18.484375 C 17.8125 -19.234375 17.191406 -19.820312 16.453125 -20.25 C 15.722656 -20.6875 14.957031 -20.992188 14.15625 -21.171875 C 13.351562 -21.359375 12.671875 -21.453125 12.109375 -21.453125 C 10.328125 -21.453125 8.6875 -21.210938 7.1875 -20.734375 C 5.6875 -20.253906 4.289062 -19.613281 3 -18.8125 L 1.40625 -21.453125 C 2.84375 -22.316406 4.453125 -23.023438 6.234375 -23.578125 C 8.015625 -24.140625 9.972656 -24.421875 12.109375 -24.421875 C 13.398438 -24.421875 14.671875 -24.253906 15.921875 -23.921875 C 17.179688 -23.585938 18.3125 -23.070312 19.3125 -22.375 C 20.3125 -21.6875 21.109375 -20.78125 21.703125 -19.65625 C 22.304688 -18.53125 22.609375 -17.179688 22.609375 -15.609375 L 22.609375 0 L 19.0625 0 L 19.0625 -4 C 18.445312 -3.226562 17.75 -2.550781 16.96875 -1.96875 C 16.195312 -1.382812 15.382812 -0.910156 14.53125 -0.546875 C 13.6875 -0.179688 12.835938 0.0976562 11.984375 0.296875 C 11.128906 0.492188 10.316406 0.59375 9.546875 0.59375 C 6.390625 0.59375 4 -0.0078125 2.375 -1.21875 C 0.757812 -2.4375 -0.046875 -4.179688 -0.046875 -6.453125 Z M 9.546875 -2.40625 C 11.015625 -2.40625 12.332031 -2.625 13.5 -3.0625 C 14.664062 -3.5 15.660156 -4.039062 16.484375 -4.6875 C 17.304688 -5.332031 17.941406 -6.019531 18.390625 -6.75 C 18.835938 -7.488281 19.0625 -8.15625 19.0625 -8.75 L 19.0625 -11 C 17.925781 -11.175781 16.832031 -11.269531 15.78125 -11.28125 C 14.726562 -11.300781 13.816406 -11.3125 13.046875 -11.3125 C 11.785156 -11.3125 10.570312 -11.222656 9.40625 -11.046875 C 8.238281 -10.878906 7.21875 -10.601562 6.34375 -10.21875 C 5.476562 -9.84375 4.78125 -9.347656 4.25 -8.734375 C 3.71875 -8.117188 3.453125 -7.359375 3.453125 -6.453125 C 3.453125 -5.441406 3.941406 -4.515625 4.921875 -3.671875 C 5.910156 -2.828125 7.453125 -2.40625 9.546875 -2.40625 Z M 9.546875 -2.40625" transform="translate(170.856 122.68)"/></g></g></g><g fill="#FFF"><g><g><path d="M 24.59375 -23.859375 L 11.703125 6.046875 C 11.035156 7.710938 10.09375 8.804688 8.875 9.328125 C 7.664062 9.847656 6.328125 10.109375 4.859375 10.109375 C 3.222656 10.109375 1.585938 9.8125 -0.046875 9.21875 L 0.640625 6.1875 C 1.441406 6.53125 2.222656 6.773438 2.984375 6.921875 C 3.753906 7.066406 4.378906 7.140625 4.859375 7.140625 C 6.023438 7.140625 6.820312 6.859375 7.25 6.296875 C 7.6875 5.734375 8.066406 5.066406 8.390625 4.296875 L 9.859375 0.6875 L -0.796875 -23.859375 L 3.359375 -23.859375 L 11.953125 -3 L 20.40625 -23.859375 Z M 24.59375 -23.859375" transform="translate(199.469 122.68)"/></g></g></g><g fill="#FFF"><g><g><path d="M 24.0625 -8.75 C 23.1875 -5.882812 21.757812 -3.609375 19.78125 -1.921875 C 17.800781 -0.242188 15.3125 0.59375 12.3125 0.59375 C 9.976562 0.59375 8 0.113281 6.375 -0.84375 C 4.75 -1.8125 3.421875 -3.085938 2.390625 -4.671875 C 1.359375 -6.265625 0.613281 -8.101562 0.15625 -10.1875 C -0.289062 -12.269531 -0.515625 -14.425781 -0.515625 -16.65625 C -0.515625 -18.894531 -0.289062 -21.054688 0.15625 -23.140625 C 0.613281 -25.222656 1.359375 -27.066406 2.390625 -28.671875 C 3.421875 -30.273438 4.75 -31.554688 6.375 -32.515625 C 8 -33.484375 9.976562 -33.96875 12.3125 -33.96875 C 14.375 -33.96875 16.140625 -33.597656 17.609375 -32.859375 C 19.078125 -32.128906 20.160156 -31.015625 20.859375 -29.515625 L 20.859375 -33.40625 L 23.859375 -33.40625 L 23.859375 -22.453125 L 20.859375 -22.453125 C 20.859375 -23.628906 20.628906 -24.738281 20.171875 -25.78125 C 19.722656 -26.832031 19.113281 -27.742188 18.34375 -28.515625 C 17.582031 -29.285156 16.675781 -29.882812 15.625 -30.3125 C 14.570312 -30.75 13.46875 -30.96875 12.3125 -30.96875 C 10.5 -30.96875 9 -30.539062 7.8125 -29.6875 C 6.632812 -28.832031 5.6875 -27.710938 4.96875 -26.328125 C 4.25 -24.953125 3.738281 -23.421875 3.4375 -21.734375 C 3.144531 -20.046875 3 -18.351562 3 -16.65625 C 3 -14.988281 3.144531 -13.304688 3.4375 -11.609375 C 3.738281 -9.910156 4.25 -8.378906 4.96875 -7.015625 C 5.6875 -5.660156 6.632812 -4.550781 7.8125 -3.6875 C 9 -2.832031 10.5 -2.40625 12.3125 -2.40625 C 16.476562 -2.40625 19.378906 -4.921875 21.015625 -9.953125 Z M 24.0625 -8.75" transform="translate(228.08 122.68)"/></g></g></g><g fill="#FFF"><g><g><path d="M 24.46875 -11.84375 C 24.46875 -9.988281 24.171875 -8.300781 23.578125 -6.78125 C 22.992188 -5.257812 22.148438 -3.957031 21.046875 -2.875 C 19.953125 -1.789062 18.632812 -0.941406 17.09375 -0.328125 C 15.5625 0.285156 13.847656 0.59375 11.953125 0.59375 C 10.085938 0.59375 8.390625 0.285156 6.859375 -0.328125 C 5.328125 -0.941406 4.007812 -1.789062 2.90625 -2.875 C 1.800781 -3.957031 0.953125 -5.257812 0.359375 -6.78125 C -0.222656 -8.300781 -0.515625 -9.988281 -0.515625 -11.84375 C -0.515625 -13.65625 -0.222656 -15.34375 0.359375 -16.90625 C 0.953125 -18.46875 1.800781 -19.796875 2.90625 -20.890625 C 4.007812 -21.992188 5.328125 -22.859375 6.859375 -23.484375 C 8.390625 -24.109375 10.085938 -24.421875 11.953125 -24.421875 C 13.847656 -24.421875 15.5625 -24.109375 17.09375 -23.484375 C 18.632812 -22.859375 19.953125 -21.992188 21.046875 -20.890625 C 22.148438 -19.796875 22.992188 -18.46875 23.578125 -16.90625 C 24.171875 -15.34375 24.46875 -13.65625 24.46875 -11.84375 Z M 20.96875 -11.84375 C 20.96875 -13.21875 20.765625 -14.476562 20.359375 -15.625 C 19.960938 -16.78125 19.367188 -17.789062 18.578125 -18.65625 C 17.796875 -19.53125 16.84375 -20.210938 15.71875 -20.703125 C 14.601562 -21.203125 13.347656 -21.453125 11.953125 -21.453125 C 10.554688 -21.453125 9.296875 -21.203125 8.171875 -20.703125 C 7.054688 -20.210938 6.113281 -19.53125 5.34375 -18.65625 C 4.582031 -17.789062 4 -16.78125 3.59375 -15.625 C 3.195312 -14.476562 3 -13.21875 3 -11.84375 C 3 -10.476562 3.195312 -9.21875 3.59375 -8.0625 C 4 -6.914062 4.582031 -5.925781 5.34375 -5.09375 C 6.113281 -4.257812 7.054688 -3.601562 8.171875 -3.125 C 9.296875 -2.644531 10.554688 -2.40625 11.953125 -2.40625 C 13.347656 -2.40625 14.601562 -2.644531 15.71875 -3.125 C 16.84375 -3.601562 17.796875 -4.257812 18.578125 -5.09375 C 19.367188 -5.925781 19.960938 -6.914062 20.359375 -8.0625 C 20.765625 -9.21875 20.96875 -10.476562 20.96875 -11.84375 Z M 20.96875 -11.84375" transform="translate(256.693 122.68)"/></g></g></g><g fill="#FFF"><g><g><path d="M 22.609375 0 L 19.0625 0 L 19.0625 -2.203125 C 18.0625 -1.296875 16.957031 -0.601562 15.75 -0.125 C 14.550781 0.351562 13.320312 0.59375 12.0625 0.59375 C 10.164062 0.59375 8.460938 0.285156 6.953125 -0.328125 C 5.453125 -0.941406 4.1875 -1.800781 3.15625 -2.90625 C 2.125 -4.007812 1.332031 -5.328125 0.78125 -6.859375 C 0.226562 -8.390625 -0.046875 -10.070312 -0.046875 -11.90625 C -0.046875 -13.707031 0.226562 -15.378906 0.78125 -16.921875 C 1.332031 -18.472656 2.125 -19.796875 3.15625 -20.890625 C 4.1875 -21.992188 5.453125 -22.859375 6.953125 -23.484375 C 8.460938 -24.109375 10.164062 -24.421875 12.0625 -24.421875 C 13.320312 -24.421875 14.550781 -24.191406 15.75 -23.734375 C 16.957031 -23.285156 18.0625 -22.609375 19.0625 -21.703125 L 19.0625 -30.40625 L 14.3125 -30.40625 L 14.3125 -33.40625 L 22.609375 -33.40625 Z M 19.0625 -18.296875 C 18.0625 -19.410156 16.96875 -20.210938 15.78125 -20.703125 C 14.59375 -21.203125 13.332031 -21.453125 12 -21.453125 C 10.601562 -21.453125 9.367188 -21.203125 8.296875 -20.703125 C 7.234375 -20.210938 6.34375 -19.539062 5.625 -18.6875 C 4.914062 -17.832031 4.375 -16.828125 4 -15.671875 C 3.632812 -14.523438 3.453125 -13.269531 3.453125 -11.90625 C 3.453125 -10.539062 3.632812 -9.28125 4 -8.125 C 4.375 -6.976562 4.914062 -5.976562 5.625 -5.125 C 6.34375 -4.269531 7.234375 -3.59375 8.296875 -3.09375 C 9.367188 -2.601562 10.601562 -2.359375 12 -2.359375 C 14.695312 -2.359375 17.050781 -3.421875 19.0625 -5.546875 Z M 19.0625 -18.296875" transform="translate(285.305 122.68)"/></g></g></g><g fill="#FFF"><g><g><path d="M 3.5 -10.703125 C 3.757812 -8.171875 4.679688 -6.15625 6.265625 -4.65625 C 7.859375 -3.15625 9.925781 -2.40625 12.46875 -2.40625 C 14.257812 -2.40625 15.851562 -2.769531 17.25 -3.5 C 18.644531 -4.238281 19.695312 -5.15625 20.40625 -6.25 L 22.859375 -4.5625 C 21.660156 -2.882812 20.234375 -1.601562 18.578125 -0.71875 C 16.921875 0.15625 14.882812 0.59375 12.46875 0.59375 C 10.625 0.59375 8.929688 0.285156 7.390625 -0.328125 C 5.859375 -0.941406 4.53125 -1.800781 3.40625 -2.90625 C 2.289062 -4.007812 1.425781 -5.316406 0.8125 -6.828125 C 0.195312 -8.347656 -0.109375 -10.039062 -0.109375 -11.90625 C -0.109375 -13.707031 0.164062 -15.375 0.71875 -16.90625 C 1.28125 -18.4375 2.082031 -19.757812 3.125 -20.875 C 4.175781 -21.988281 5.453125 -22.859375 6.953125 -23.484375 C 8.460938 -24.109375 10.144531 -24.421875 12 -24.421875 C 14.03125 -24.421875 15.804688 -24.078125 17.328125 -23.390625 C 18.847656 -22.710938 20.113281 -21.769531 21.125 -20.5625 C 22.144531 -19.363281 22.894531 -17.925781 23.375 -16.25 C 23.863281 -14.582031 24.109375 -12.734375 24.109375 -10.703125 Z M 20.40625 -13.6875 C 20.007812 -16.300781 19.0625 -18.25 17.5625 -19.53125 C 16.0625 -20.8125 14.207031 -21.453125 12 -21.453125 C 10.875 -21.453125 9.832031 -21.265625 8.875 -20.890625 C 7.925781 -20.523438 7.082031 -20 6.34375 -19.3125 C 5.613281 -18.632812 5 -17.8125 4.5 -16.84375 C 4.007812 -15.882812 3.695312 -14.832031 3.5625 -13.6875 Z M 20.40625 -13.6875" transform="translate(313.917 122.68)"/></g></g></g><g fill="#FFF"><g><g><path d="M 23.21875 -6.609375 C 23.21875 -5.203125 22.867188 -4.035156 22.171875 -3.109375 C 21.472656 -2.191406 20.570312 -1.460938 19.46875 -0.921875 C 18.363281 -0.378906 17.132812 0.00390625 15.78125 0.234375 C 14.425781 0.472656 13.097656 0.59375 11.796875 0.59375 C 9.628906 0.59375 7.46875 0.273438 5.3125 -0.359375 C 3.164062 -0.992188 1.3125 -1.820312 -0.25 -2.84375 L 1.3125 -5.859375 C 3.0625 -4.753906 4.789062 -3.898438 6.5 -3.296875 C 8.207031 -2.703125 9.972656 -2.40625 11.796875 -2.40625 C 17.066406 -2.40625 19.703125 -3.769531 19.703125 -6.5 C 19.703125 -7.164062 19.484375 -7.707031 19.046875 -8.125 C 18.617188 -8.539062 18.035156 -8.878906 17.296875 -9.140625 C 16.566406 -9.410156 15.726562 -9.625 14.78125 -9.78125 C 13.832031 -9.9375 12.835938 -10.082031 11.796875 -10.21875 C 10.460938 -10.40625 9.140625 -10.625 7.828125 -10.875 C 6.515625 -11.132812 5.316406 -11.519531 4.234375 -12.03125 C 3.148438 -12.539062 2.28125 -13.222656 1.625 -14.078125 C 0.96875 -14.929688 0.640625 -16.054688 0.640625 -17.453125 C 0.640625 -18.648438 0.941406 -19.679688 1.546875 -20.546875 C 2.148438 -21.421875 2.957031 -22.144531 3.96875 -22.71875 C 4.988281 -23.300781 6.179688 -23.726562 7.546875 -24 C 8.910156 -24.28125 10.328125 -24.421875 11.796875 -24.421875 C 13.898438 -24.421875 15.78125 -24.175781 17.4375 -23.6875 C 19.09375 -23.195312 20.582031 -22.503906 21.90625 -21.609375 L 20.5 -18.859375 C 19.132812 -19.816406 17.75 -20.488281 16.34375 -20.875 C 14.945312 -21.257812 13.429688 -21.453125 11.796875 -21.453125 C 11.066406 -21.453125 10.253906 -21.382812 9.359375 -21.25 C 8.460938 -21.125 7.628906 -20.90625 6.859375 -20.59375 C 6.085938 -20.28125 5.441406 -19.867188 4.921875 -19.359375 C 4.398438 -18.859375 4.140625 -18.222656 4.140625 -17.453125 C 4.140625 -16.785156 4.359375 -16.25 4.796875 -15.84375 C 5.234375 -15.445312 5.816406 -15.117188 6.546875 -14.859375 C 7.285156 -14.597656 8.128906 -14.390625 9.078125 -14.234375 C 10.023438 -14.078125 11.019531 -13.929688 12.0625 -13.796875 C 13.351562 -13.609375 14.660156 -13.382812 15.984375 -13.125 C 17.304688 -12.875 18.507812 -12.5 19.59375 -12 C 20.675781 -11.507812 21.550781 -10.835938 22.21875 -9.984375 C 22.882812 -9.128906 23.21875 -8.003906 23.21875 -6.609375 Z M 23.21875 -6.609375" transform="translate(342.53 122.68)"/></g></g></g></svg>