<svg xmlns="http://www.w3.org/2000/svg" width="375" viewBox="0 0 375 375" height="375" version="1.0"><path fill="#5FB832" d="M 466.242188 257.164062 C 461.988281 254.867188 458.714844 249.949219 458.714844 243.394531 C 458.714844 234.558594 465.585938 227.394531 474.785156 227.394531 C 478.042969 227.394531 481.003906 228.355469 483.28125 229.667969 C 500.003906 240.8125 517.371094 246.382812 533.070312 246.382812 C 550.101562 246.382812 559.925781 239.167969 559.925781 227.691406 L 559.925781 227.042969 C 559.925781 213.613281 541.59375 209.035156 521.269531 202.816406 C 495.738281 195.605469 467.238281 185.136719 467.238281 152.050781 L 467.238281 151.390625 C 467.238281 118.632812 494.425781 98.660156 528.820312 98.660156 C 547.167969 98.660156 566.484375 103.910156 583.1875 112.738281 C 588.773438 115.695312 592.683594 120.9375 592.683594 127.796875 C 592.683594 136.980469 585.488281 143.871094 576.320312 143.871094 C 573.023438 143.871094 571.0625 143.214844 568.46875 141.894531 C 554.363281 134.683594 539.957031 130.089844 527.839844 130.089844 C 512.433594 130.089844 503.589844 137.3125 503.589844 147.144531 L 503.589844 147.78125 C 503.589844 160.558594 522.257812 165.785156 542.574219 172.347656 C 567.792969 180.214844 596.292969 191.671875 596.292969 222.78125 L 596.292969 223.445312 C 596.292969 259.796875 568.109375 277.789062 532.085938 277.789062 C 510.15625 277.789062 486.242188 270.933594 466.242188 257.164062 M 749.835938 188.398438 L 749.835938 187.734375 C 749.835938 154.34375 727.230469 132.398438 700.382812 132.398438 C 673.527344 132.398438 649.941406 154.667969 649.941406 187.734375 L 649.941406 188.398438 C 649.941406 221.476562 673.527344 243.769531 700.382812 243.769531 C 727.570312 243.769531 749.835938 222.464844 749.835938 188.398438 M 611.28125 118.625 C 611.28125 107.511719 619.789062 98.65625 630.949219 98.65625 C 642.078125 98.65625 650.921875 107.511719 650.921875 118.625 L 650.921875 130.433594 C 663.699219 112.429688 681.707031 98.011719 709.882812 98.011719 C 750.492188 98.011719 790.132812 130.09375 790.132812 187.734375 L 790.132812 188.398438 C 790.132812 245.71875 750.824219 278.132812 709.882812 278.132812 C 681.0625 278.132812 663.042969 263.707031 650.921875 247.695312 L 650.921875 308.902344 C 650.921875 320.082031 642.078125 328.597656 630.949219 328.597656 C 620.144531 328.597656 611.28125 320.082031 611.28125 308.902344 L 611.28125 118.628906 M 805.144531 118.648438 C 805.144531 107.535156 813.636719 98.679688 824.777344 98.679688 C 835.941406 98.679688 844.773438 107.535156 844.773438 118.648438 L 844.773438 128.179688 C 846.75 113.335938 870.964844 98.679688 888.332031 98.679688 C 900.773438 98.679688 907.988281 106.859375 907.988281 118.316406 C 907.988281 128.789062 901.105469 135.679688 892.257812 137.3125 C 864.089844 142.226562 844.773438 166.875 844.773438 200.972656 L 844.773438 258.105469 C 844.773438 268.925781 835.941406 277.765625 824.777344 277.765625 C 813.976562 277.765625 805.144531 269.246094 805.144531 258.105469 L 805.144531 118.648438 M 922.980469 118.730469 C 922.980469 107.597656 931.523438 98.742188 942.640625 98.742188 C 953.777344 98.742188 962.621094 107.597656 962.621094 118.730469 L 962.621094 258.140625 C 962.621094 269.261719 953.777344 277.765625 942.640625 277.765625 C 931.824219 277.765625 922.980469 269.261719 922.980469 258.140625 L 922.980469 118.730469 M 982.601562 118.804688 C 982.601562 107.675781 991.125 98.839844 1002.242188 98.839844 C 1013.390625 98.839844 1022.230469 107.675781 1022.230469 118.804688 L 1022.230469 126.9375 C 1033.386719 110.882812 1049.410156 98.738281 1076.265625 98.738281 C 1115.246094 98.738281 1137.859375 124.949219 1137.859375 164.902344 L 1137.859375 258.117188 C 1137.859375 269.246094 1129.332031 277.769531 1118.199219 277.769531 C 1107.0625 277.769531 1098.226562 269.246094 1098.226562 258.117188 L 1098.226562 177.023438 C 1098.226562 150.179688 1084.796875 134.777344 1061.210938 134.777344 C 1038.285156 134.777344 1022.230469 150.824219 1022.230469 177.699219 L 1022.230469 258.117188 C 1022.230469 269.246094 1013.390625 277.769531 1002.242188 277.769531 C 991.441406 277.769531 982.601562 269.246094 982.601562 258.117188 L 982.601562 118.804688 M 1242.621094 243.40625 C 1215.410156 243.40625 1193.160156 222.109375 1193.160156 188.042969 L 1193.160156 187.402344 C 1193.160156 154 1215.742188 132.054688 1242.621094 132.054688 C 1269.484375 132.054688 1293.066406 154.332031 1293.066406 187.402344 L 1293.066406 188.042969 C 1293.066406 221.128906 1269.484375 243.40625 1242.621094 243.40625 M 1312.027344 98.3125 C 1300.910156 98.3125 1292.0625 107.175781 1292.0625 118.292969 L 1292.0625 130.082031 C 1279.277344 112.074219 1261.28125 97.667969 1233.125 97.667969 C 1192.488281 97.667969 1152.867188 129.75 1152.867188 187.402344 L 1152.867188 188.042969 C 1152.867188 245.367188 1192.164062 277.769531 1233.125 277.769531 C 1261.777344 277.769531 1279.75 263.515625 1291.882812 247.582031 C 1289.894531 278.722656 1270.828125 295.164062 1237.382812 295.164062 C 1217.417969 295.164062 1200.050781 290.234375 1184.304688 281.375 C 1182.34375 280.417969 1180.085938 279.769531 1177.125 279.769531 C 1167.957031 279.769531 1160.398438 287.3125 1160.398438 296.125 C 1160.398438 303.664062 1164.664062 309.230469 1171.5625 311.851562 C 1192.496094 322.007812 1214.097656 327.25 1238.351562 327.25 C 1269.484375 327.25 1293.730469 319.722656 1309.453125 303.996094 C 1323.832031 289.574219 1331.699219 267.984375 1331.699219 238.820312 L 1331.699219 118.292969 C 1331.699219 107.175781 1323.183594 98.3125 1312.027344 98.3125 M 962.78125 51.019531 C 962.78125 62.039062 953.828125 71 942.792969 71 C 931.75 71 922.820312 62.039062 922.820312 51.019531 C 922.820312 39.96875 931.75 31.050781 942.792969 31.050781 C 953.828125 31.050781 962.78125 39.96875 962.78125 51.019531 M 333.269531 265.929688 C 289.332031 324.464844 195.472656 304.707031 135.296875 307.546875 C 135.296875 307.546875 124.644531 308.140625 113.914062 309.90625 C 113.914062 309.90625 117.972656 308.175781 123.144531 306.390625 C 165.410156 291.777344 185.382812 288.839844 211.0625 275.652344 C 259.316406 250.9375 307.339844 197.101562 317.109375 141.179688 C 298.742188 194.964844 242.882812 241.257812 192.023438 260.054688 C 157.210938 272.902344 94.253906 285.402344 94.246094 285.40625 C 94.273438 285.453125 91.734375 284.089844 91.699219 284.058594 C 48.882812 263.230469 47.648438 170.511719 125.410156 140.625 C 159.503906 127.511719 192.113281 134.710938 228.96875 125.941406 C 268.28125 116.59375 313.808594 87.132812 332.3125 48.617188 C 353.058594 110.140625 377.980469 206.398438 333.269531 265.929688 Z M 334.035156 29.550781 C 328.804688 41.976562 322.421875 53.175781 315.058594 63.191406 C 282.667969 29.949219 237.457031 9.238281 187.480469 9.238281 C 89.179688 9.238281 9.210938 89.203125 9.210938 187.476562 C 9.210938 238.996094 31.207031 285.460938 66.269531 318.027344 L 70.171875 321.488281 C 63.652344 316.171875 62.652344 306.597656 67.933594 300.074219 C 73.25 293.546875 82.832031 292.535156 89.355469 297.820312 C 95.894531 303.121094 96.890625 312.714844 91.597656 319.253906 C 86.320312 325.792969 76.722656 326.777344 70.191406 321.5 L 72.847656 323.855469 C 103.863281 349.964844 143.84375 365.738281 187.480469 365.738281 C 281.445312 365.738281 358.601562 292.625 365.207031 200.339844 C 370.097656 155.15625 356.75 97.785156 334.035156 29.550781 M 1378.113281 110.796875 L 1371.882812 110.796875 L 1371.882812 119.039062 L 1378.113281 119.039062 C 1380.128906 119.039062 1382.332031 117.414062 1382.332031 115.015625 C 1382.332031 112.421875 1380.128906 110.796875 1378.113281 110.796875 Z M 1381.953125 131.203125 L 1375.90625 122.003906 L 1371.882812 122.003906 L 1371.882812 131.203125 L 1368.632812 131.203125 L 1368.632812 107.917969 L 1378.113281 107.917969 C 1382.042969 107.917969 1385.691406 110.707031 1385.691406 115.015625 C 1385.691406 120.1875 1381.078125 121.914062 1379.742188 121.914062 L 1385.976562 131.203125 Z M 1376.390625 102.265625 C 1366.804688 102.265625 1359.136719 109.933594 1359.136719 119.519531 C 1359.136719 129 1366.804688 136.765625 1376.390625 136.765625 C 1385.871094 136.765625 1393.636719 129 1393.636719 119.519531 C 1393.636719 109.933594 1385.871094 102.265625 1376.390625 102.265625 Z M 1376.390625 139.835938 C 1365.171875 139.835938 1356.070312 130.730469 1356.070312 119.519531 C 1356.070312 108.203125 1365.171875 99.199219 1376.390625 99.199219 C 1387.699219 99.199219 1396.710938 108.203125 1396.710938 119.519531 C 1396.710938 130.730469 1387.699219 139.835938 1376.390625 139.835938"/></svg>